<?xml version="1.0" encoding="UTF-8"?>
<svg xmlns="http://www.w3.org/2000/svg">
  <symbol id="search" viewBox="0 0 24 24" fill="none" stroke="currentColor" stroke-width="1.8" stroke-linecap="round" stroke-linejoin="round">
    <circle cx="10.5" cy="10.5" r="5.5"/>
    <path d="m15 15 4.5 4.5M10.5 8v5M8 10.5h5"/>
  </symbol>
  <symbol id="users" viewBox="0 0 24 24" fill="none" stroke="currentColor" stroke-width="1.8" stroke-linecap="round" stroke-linejoin="round">
    <circle cx="9" cy="8" r="3"/>
    <circle cx="17" cy="9" r="2.3"/>
    <path d="M3.5 19c.4-3.2 2.3-5 5.5-5s5.1 1.8 5.5 5M14.5 14.5c3.3-.7 5.5.8 6 3.5"/>
  </symbol>
  <symbol id="chart" viewBox="0 0 24 24" fill="none" stroke="currentColor" stroke-width="1.8" stroke-linecap="round" stroke-linejoin="round">
    <path d="M4 19V5M4 19h16M7 15l4-4 3 2 5-6"/>
    <path d="M16 7h3v3"/>
  </symbol>
  <symbol id="building" viewBox="0 0 24 24" fill="none" stroke="currentColor" stroke-width="1.8" stroke-linecap="round" stroke-linejoin="round">
    <path d="M5 21V4h10v17M15 9h4v12M3 21h18M8 8h1M11 8h1M8 12h1M11 12h1M8 16h1M11 16h1"/>
  </symbol>
  <symbol id="target" viewBox="0 0 24 24" fill="none" stroke="currentColor" stroke-width="1.8" stroke-linecap="round" stroke-linejoin="round">
    <circle cx="12" cy="12" r="8"/>
    <circle cx="12" cy="12" r="4"/>
    <circle cx="12" cy="12" r="1"/>
  </symbol>
  <symbol id="list" viewBox="0 0 24 24" fill="none" stroke="currentColor" stroke-width="1.8" stroke-linecap="round" stroke-linejoin="round">
    <path d="M9 6h11M9 12h11M9 18h11M4 6h.01M4 12h.01M4 18h.01"/>
  </symbol>
  <symbol id="graduate" viewBox="0 0 24 24" fill="none" stroke="currentColor" stroke-width="1.8" stroke-linecap="round" stroke-linejoin="round">
    <path d="m3 9 9-5 9 5-9 5-9-5Z"/>
    <path d="M7 12v4c2.8 2.4 7.2 2.4 10 0v-4M21 9v6"/>
  </symbol>
  <symbol id="handshake" viewBox="0 0 24 24" fill="none" stroke="currentColor" stroke-width="1.8" stroke-linecap="round" stroke-linejoin="round">
    <path d="m3 8 4-3 4 3-5 6-3-2V8ZM21 8l-4-3-4 3 5 6 3-2V8Z"/>
    <path d="m8 13 4 4c.8.8 2 .8 2.8 0l3.2-3M10 9l2-1 3 3"/>
  </symbol>
  <symbol id="mail" viewBox="0 0 24 24" fill="none" stroke="currentColor" stroke-width="1.8" stroke-linecap="round" stroke-linejoin="round">
    <rect x="3" y="5" width="18" height="14" rx="2"/>
    <path d="m4 7 8 6 8-6"/>
  </symbol>
  <symbol id="chat" viewBox="0 0 24 24" fill="none" stroke="currentColor" stroke-width="1.8" stroke-linecap="round" stroke-linejoin="round">
    <path d="M20 15a3 3 0 0 1-3 3H9l-5 3v-6a3 3 0 0 1-1-2V7a3 3 0 0 1 3-3h11a3 3 0 0 1 3 3v8Z"/>
    <path d="M7 9h10M7 13h7"/>
  </symbol>
  <symbol id="map" viewBox="0 0 24 24" fill="none" stroke="currentColor" stroke-width="1.8" stroke-linecap="round" stroke-linejoin="round">
    <path d="M19 10c0 5-7 11-7 11S5 15 5 10a7 7 0 1 1 14 0Z"/>
    <circle cx="12" cy="10" r="2.2"/>
  </symbol>
  <symbol id="arrow-up" viewBox="0 0 24 24" fill="none" stroke="currentColor" stroke-width="2" stroke-linecap="round" stroke-linejoin="round">
    <path d="m6 14 6-6 6 6"/>
  </symbol>
  <symbol id="chevron-down" viewBox="0 0 24 24" fill="none" stroke="currentColor" stroke-width="2" stroke-linecap="round" stroke-linejoin="round">
    <path d="m6 9 6 6 6-6"/>
  </symbol>
</svg>
