<?xml version="1.0" encoding="UTF-8"?>
<svg xmlns="http://www.w3.org/2000/svg" width="308.431" height="73.786" viewBox="0 0 308.431 73.786" role="img" aria-labelledby="title">
  <title>Witbacon Logo</title>
  <path fill="#4dccff" d="M 109.709 51.885 C 110.313 50.762 111.588 50.537 112.603 51.253 C 121.314 57.21 137.215 57.209 145.927 51.254 C 146.94 50.539 148.218 50.762 148.823 51.885 C 149.428 53.009 149.003 54.715 147.827 55.545 C 137.975 62.324 120.556 62.324 110.704 55.545 C 109.525 54.714 109.104 53.009 109.709 51.885"/>
  <path fill="#1973ff" d="M 46.371 60.244 C 46.299 60.435 46.185 60.598 46.03 60.728 C 45.873 60.861 45.671 60.963 45.419 61.035 C 45.167 61.106 44.879 61.16 44.556 61.195 C 44.232 61.232 43.855 61.25 43.424 61.25 C 42.992 61.25 42.608 61.232 42.273 61.195 C 41.938 61.16 41.644 61.106 41.392 61.035 C 41.142 60.963 40.937 60.861 40.783 60.728 C 40.626 60.598 40.512 60.435 40.44 60.244 L 29.441 22.033 L 29.369 22.033 L 19.304 60.244 C 19.256 60.435 19.166 60.598 19.035 60.728 C 18.902 60.861 18.723 60.963 18.495 61.035 C 18.267 61.106 17.993 61.16 17.668 61.195 C 17.345 61.232 16.955 61.25 16.5 61.25 C 16.02 61.25 15.608 61.232 15.26 61.195 C 14.913 61.16 14.607 61.106 14.344 61.035 C 14.08 60.963 13.871 60.861 13.714 60.728 C 13.559 60.598 13.445 60.435 13.373 60.244 L 0.181 15.996 C 0.06 15.612 0.001 15.311 0.001 15.097 C 0.001 14.88 0.079 14.712 0.236 14.593 C 0.391 14.473 0.631 14.395 0.954 14.359 C 1.278 14.324 1.703 14.306 2.23 14.306 C 2.757 14.306 3.176 14.324 3.488 14.359 C 3.799 14.395 4.039 14.449 4.206 14.521 C 4.374 14.593 4.489 14.688 4.548 14.808 C 4.608 14.93 4.662 15.073 4.71 15.24 L 16.392 56.037 L 16.429 56.037 L 27.176 15.24 C 27.224 15.073 27.284 14.93 27.356 14.808 C 27.427 14.688 27.553 14.593 27.733 14.521 C 27.913 14.449 28.165 14.395 28.488 14.359 C 28.812 14.324 29.238 14.306 29.764 14.306 C 30.171 14.306 30.501 14.324 30.753 14.359 C 31.004 14.395 31.208 14.449 31.364 14.521 C 31.52 14.593 31.64 14.688 31.723 14.808 C 31.807 14.93 31.873 15.073 31.92 15.24 L 43.639 56.037 L 43.711 56.037 L 55.105 15.24 C 55.153 15.073 55.208 14.93 55.267 14.808 C 55.327 14.688 55.441 14.593 55.609 14.521 C 55.777 14.449 56.004 14.395 56.292 14.359 C 56.58 14.324 56.975 14.306 57.478 14.306 C 58.005 14.306 58.425 14.33 58.737 14.378 C 59.047 14.426 59.282 14.508 59.437 14.63 C 59.593 14.749 59.677 14.916 59.689 15.131 C 59.701 15.348 59.659 15.636 59.563 15.996 Z"/>
  <path fill="#1973ff" d="M 72.576 60.316 C 72.576 60.459 72.54 60.591 72.467 60.711 C 72.396 60.83 72.282 60.925 72.126 60.998 C 71.97 61.072 71.754 61.13 71.479 61.177 C 71.203 61.225 70.85 61.25 70.418 61.25 C 70.011 61.25 69.669 61.225 69.394 61.177 C 69.118 61.13 68.897 61.072 68.73 60.998 C 68.561 60.925 68.447 60.83 68.388 60.711 C 68.328 60.591 68.297 60.459 68.297 60.316 L 68.297 27.785 C 68.297 27.64 68.328 27.51 68.388 27.388 C 68.447 27.269 68.561 27.169 68.73 27.085 C 68.897 27 69.118 26.941 69.394 26.904 C 69.669 26.867 70.011 26.85 70.418 26.85 C 70.85 26.85 71.203 26.867 71.479 26.904 C 71.754 26.941 71.97 27 72.126 27.085 C 72.282 27.169 72.396 27.269 72.467 27.388 C 72.54 27.51 72.576 27.64 72.576 27.785 Z M 73.223 16.82 C 73.223 17.972 73.019 18.752 72.611 19.158 C 72.203 19.566 71.461 19.768 70.382 19.768 C 69.328 19.768 68.604 19.57 68.208 19.175 C 67.812 18.779 67.615 18.006 67.615 16.858 C 67.615 15.707 67.818 14.929 68.226 14.521 C 68.633 14.113 69.376 13.911 70.455 13.911 C 71.508 13.911 72.234 14.108 72.629 14.503 C 73.024 14.899 73.223 15.672 73.223 16.82"/>
  <path fill="#1973ff" d="M 100.218 58.375 C 100.218 58.879 100.175 59.287 100.092 59.598 C 100.007 59.907 99.876 60.152 99.697 60.333 C 99.516 60.514 99.252 60.681 98.906 60.838 C 98.558 60.993 98.155 61.123 97.7 61.232 C 97.245 61.341 96.767 61.424 96.263 61.484 C 95.76 61.543 95.269 61.573 94.79 61.573 C 93.183 61.573 91.818 61.358 90.692 60.926 C 89.564 60.496 88.642 59.843 87.924 58.967 C 87.205 58.095 86.684 56.984 86.36 55.643 C 86.037 54.301 85.875 52.719 85.875 50.897 L 85.875 30.662 L 81.022 30.662 C 80.687 30.662 80.423 30.511 80.231 30.212 C 80.039 29.913 79.944 29.463 79.944 28.863 C 79.944 28.553 79.968 28.283 80.015 28.056 C 80.063 27.827 80.135 27.636 80.231 27.48 C 80.327 27.323 80.441 27.21 80.572 27.139 C 80.704 27.067 80.854 27.03 81.022 27.03 L 85.875 27.03 L 85.875 19.05 C 85.875 18.906 85.905 18.776 85.965 18.654 C 86.025 18.534 86.139 18.432 86.306 18.35 C 86.474 18.266 86.696 18.205 86.971 18.169 C 87.246 18.133 87.588 18.116 87.995 18.116 C 88.428 18.116 88.78 18.133 89.056 18.169 C 89.331 18.205 89.547 18.266 89.703 18.35 C 89.859 18.432 89.972 18.534 90.044 18.654 C 90.116 18.776 90.152 18.906 90.152 19.05 L 90.152 27.03 L 99.138 27.03 C 99.307 27.03 99.456 27.067 99.587 27.139 C 99.719 27.21 99.833 27.323 99.931 27.48 C 100.026 27.636 100.097 27.827 100.145 28.056 C 100.193 28.283 100.218 28.553 100.218 28.863 C 100.218 29.463 100.114 29.913 99.911 30.212 C 99.708 30.511 99.45 30.662 99.138 30.662 L 90.152 30.662 L 90.152 50.324 C 90.152 52.791 90.506 54.672 91.213 55.967 C 91.92 57.261 93.207 57.908 95.077 57.908 C 95.652 57.908 96.173 57.85 96.641 57.728 C 97.108 57.608 97.521 57.475 97.881 57.332 C 98.239 57.189 98.546 57.057 98.797 56.938 C 99.049 56.818 99.27 56.757 99.462 56.757 C 99.583 56.757 99.69 56.78 99.786 56.828 C 99.881 56.879 99.96 56.967 100.019 57.1 C 100.079 57.23 100.128 57.399 100.163 57.602 C 100.199 57.806 100.218 58.063 100.218 58.375"/>
  <path fill="#4dccff" d="M 196.211 44.966 L 190.28 44.966 C 188.554 44.966 187.044 45.122 185.751 45.433 C 184.456 45.745 183.379 46.201 182.517 46.798 C 181.652 47.398 181.011 48.116 180.593 48.957 C 180.173 49.795 179.963 50.753 179.963 51.832 C 179.963 53.7 180.558 55.193 181.743 56.306 C 182.929 57.423 184.601 57.979 186.758 57.979 C 188.458 57.979 190.046 57.542 191.521 56.667 C 192.993 55.792 194.557 54.445 196.211 52.622 Z M 200.489 60.316 C 200.489 60.554 200.411 60.741 200.255 60.873 C 200.099 61.003 199.895 61.099 199.646 61.159 C 199.393 61.218 199.05 61.249 198.62 61.249 C 198.212 61.249 197.864 61.218 197.577 61.159 C 197.288 61.099 197.067 61.003 196.913 60.873 C 196.757 60.741 196.679 60.554 196.679 60.316 L 196.679 56.684 C 195.217 58.267 193.606 59.487 191.844 60.352 C 190.083 61.214 188.255 61.644 186.362 61.644 C 184.659 61.644 183.134 61.423 181.778 60.98 C 180.425 60.536 179.28 59.903 178.347 59.075 C 177.411 58.247 176.692 57.249 176.189 56.073 C 175.687 54.9 175.435 53.581 175.435 52.119 C 175.435 50.323 175.806 48.759 176.549 47.429 C 177.291 46.099 178.347 44.989 179.712 44.103 C 181.079 43.218 182.719 42.553 184.636 42.108 C 186.554 41.665 188.687 41.444 191.034 41.444 L 196.211 41.444 L 196.211 38.64 C 196.211 37.249 196.068 36.023 195.779 34.956 C 195.492 33.89 195.025 32.997 194.378 32.278 C 193.732 31.557 192.891 31.019 191.861 30.661 C 190.832 30.3 189.572 30.12 188.087 30.12 C 186.649 30.12 185.355 30.296 184.206 30.641 C 183.056 30.99 182.048 31.38 181.185 31.809 C 180.323 32.242 179.608 32.63 179.046 32.978 C 178.483 33.325 178.081 33.499 177.843 33.499 C 177.7 33.499 177.567 33.475 177.448 33.427 C 177.326 33.38 177.226 33.29 177.142 33.158 C 177.058 33.028 176.998 32.859 176.962 32.654 C 176.927 32.452 176.909 32.204 176.909 31.918 C 176.909 31.414 176.944 31.015 177.016 30.715 C 177.087 30.415 177.274 30.115 177.573 29.816 C 177.874 29.516 178.405 29.162 179.173 28.754 C 179.939 28.348 180.82 27.97 181.815 27.622 C 182.81 27.275 183.882 26.993 185.032 26.778 C 186.183 26.563 187.333 26.454 188.482 26.454 C 190.71 26.454 192.593 26.723 194.126 27.264 C 195.659 27.803 196.899 28.575 197.847 29.581 C 198.794 30.589 199.469 31.829 199.878 33.301 C 200.285 34.776 200.489 36.448 200.489 38.316 Z"/>
  <path fill="#4dccff" d="M 235.068 55.5 C 235.068 55.785 235.054 56.045 235.031 56.271 C 235.007 56.5 234.972 56.697 234.925 56.865 C 234.875 57.032 234.81 57.183 234.728 57.314 C 234.642 57.447 234.445 57.669 234.134 57.979 C 233.822 58.292 233.3 58.688 232.57 59.165 C 231.839 59.645 231.017 60.064 230.107 60.425 C 229.195 60.783 228.214 61.076 227.162 61.305 C 226.105 61.532 225.015 61.645 223.888 61.645 C 221.636 61.645 219.64 61.27 217.903 60.514 C 216.166 59.758 214.711 58.644 213.536 57.171 C 212.363 55.697 211.47 53.889 210.857 51.742 C 210.248 49.599 209.941 47.123 209.941 44.319 C 209.941 41.157 210.319 38.449 211.076 36.197 C 211.828 33.945 212.865 32.099 214.183 30.662 C 215.502 29.224 217.041 28.162 218.802 27.48 C 220.564 26.796 222.451 26.455 224.464 26.455 C 225.543 26.455 226.572 26.557 227.556 26.761 C 228.537 26.965 229.443 27.234 230.269 27.569 C 231.095 27.906 231.832 28.288 232.48 28.72 C 233.127 29.152 233.601 29.517 233.9 29.816 C 234.199 30.116 234.404 30.344 234.509 30.499 C 234.619 30.655 234.703 30.829 234.761 31.02 C 234.822 31.213 234.865 31.422 234.888 31.649 C 234.912 31.878 234.925 32.147 234.925 32.457 C 234.925 33.152 234.822 33.639 234.619 33.915 C 234.414 34.19 234.193 34.327 233.955 34.327 C 233.617 34.327 233.205 34.112 232.714 33.68 C 232.22 33.248 231.593 32.777 230.826 32.26 C 230.06 31.745 229.131 31.271 228.041 30.839 C 226.951 30.41 225.65 30.195 224.14 30.195 C 221.027 30.195 218.623 31.391 216.934 33.789 C 215.245 36.184 214.4 39.648 214.4 44.176 C 214.4 46.454 214.626 48.447 215.082 50.161 C 215.538 51.875 216.189 53.301 217.041 54.439 C 217.892 55.577 218.927 56.429 220.15 56.99 C 221.373 57.554 222.75 57.836 224.283 57.836 C 225.72 57.836 226.992 57.608 228.095 57.151 C 229.195 56.697 230.156 56.194 230.97 55.643 C 231.785 55.094 232.463 54.589 233.002 54.133 C 233.539 53.68 233.941 53.451 234.207 53.451 C 234.349 53.451 234.474 53.492 234.582 53.574 C 234.691 53.66 234.781 53.792 234.853 53.973 C 234.925 54.15 234.98 54.367 235.013 54.617 C 235.05 54.869 235.068 55.164 235.068 55.5"/>
  <path fill="#4dccff" d="M 267.923 44.103 C 267.923 42.259 267.743 40.497 267.382 38.82 C 267.025 37.144 266.425 35.662 265.587 34.381 C 264.745 33.1 263.62 32.079 262.208 31.325 C 260.794 30.57 259.032 30.194 256.923 30.194 C 254.982 30.194 253.304 30.541 251.892 31.236 C 250.476 31.931 249.319 32.895 248.421 34.129 C 247.523 35.363 246.859 36.82 246.429 38.496 C 245.995 40.173 245.78 41.984 245.78 43.923 C 245.78 45.792 245.958 47.572 246.319 49.261 C 246.679 50.951 247.277 52.432 248.118 53.701 C 248.956 54.971 250.081 55.978 251.495 56.721 C 252.907 57.464 254.669 57.835 256.78 57.835 C 258.72 57.835 260.398 57.488 261.812 56.792 C 263.226 56.097 264.382 55.138 265.28 53.917 C 266.179 52.695 266.843 51.244 267.277 49.568 C 267.706 47.891 267.923 46.069 267.923 44.103 M 272.45 43.708 C 272.45 46.297 272.116 48.681 271.446 50.862 C 270.775 53.042 269.773 54.936 268.444 56.541 C 267.112 58.146 265.454 59.4 263.464 60.298 C 261.476 61.195 259.163 61.644 256.528 61.644 C 253.987 61.644 251.767 61.244 249.859 60.441 C 247.954 59.638 246.361 58.489 245.079 56.99 C 243.798 55.492 242.837 53.679 242.204 51.544 C 241.568 49.412 241.251 47.003 241.251 44.319 C 241.251 41.732 241.581 39.347 242.239 37.167 C 242.9 34.987 243.894 33.1 245.222 31.505 C 246.554 29.912 248.214 28.671 250.202 27.785 C 252.189 26.897 254.515 26.455 257.175 26.455 C 259.714 26.455 261.939 26.85 263.843 27.64 C 265.747 28.431 267.335 29.578 268.605 31.074 C 269.876 32.572 270.833 34.388 271.482 36.52 C 272.128 38.653 272.45 41.048 272.45 43.708"/>
  <path fill="#4dccff" d="M 308.431 60.316 C 308.431 60.459 308.398 60.591 308.326 60.711 C 308.251 60.83 308.138 60.925 307.984 60.998 C 307.826 61.072 307.611 61.13 307.335 61.177 C 307.06 61.225 306.718 61.25 306.312 61.25 C 305.88 61.25 305.527 61.225 305.249 61.177 C 304.974 61.13 304.759 61.072 304.603 60.998 C 304.449 60.925 304.335 60.83 304.263 60.711 C 304.191 60.591 304.156 60.459 304.156 60.316 L 304.156 41.013 C 304.156 39.001 303.999 37.365 303.687 36.105 C 303.376 34.848 302.91 33.769 302.286 32.872 C 301.661 31.973 300.867 31.278 299.896 30.787 C 298.925 30.296 297.792 30.048 296.497 30.048 C 294.847 30.048 293.191 30.637 291.538 31.81 C 289.884 32.984 288.146 34.712 286.326 36.987 L 286.326 60.316 C 286.326 60.459 286.288 60.591 286.218 60.711 C 286.146 60.83 286.033 60.925 285.876 60.998 C 285.72 61.072 285.505 61.13 285.23 61.177 C 284.954 61.225 284.599 61.25 284.169 61.25 C 283.761 61.25 283.421 61.225 283.144 61.177 C 282.869 61.13 282.648 61.072 282.48 60.998 C 282.312 60.925 282.199 60.83 282.14 60.711 C 282.079 60.591 282.048 60.459 282.048 60.316 L 282.048 27.785 C 282.048 27.64 282.079 27.51 282.14 27.388 C 282.199 27.269 282.312 27.169 282.48 27.085 C 282.648 27 282.859 26.941 283.109 26.904 C 283.359 26.867 283.691 26.85 284.097 26.85 C 284.503 26.85 284.841 26.867 285.103 26.904 C 285.367 26.941 285.57 27 285.714 27.085 C 285.859 27.169 285.96 27.269 286.021 27.388 C 286.081 27.51 286.111 27.64 286.111 27.785 L 286.111 32.385 C 287.978 30.3 289.812 28.791 291.611 27.857 C 293.408 26.921 295.191 26.455 296.964 26.455 C 299.099 26.455 300.896 26.815 302.357 27.534 C 303.82 28.253 305.001 29.223 305.898 30.444 C 306.796 31.666 307.443 33.093 307.839 34.722 C 308.234 36.353 308.431 38.316 308.431 40.619 Z"/>
  <path fill="#1973ff" d="M 134.549 19 C 134.549 21.918 132.184 24.283 129.266 24.283 C 126.348 24.283 123.983 21.918 123.983 19 C 123.983 16.082 126.348 13.717 129.266 13.717 C 132.184 13.717 134.549 16.082 134.549 19"/>
  <path fill="#1973ff" d="M 163.779 45.793 C 163.027 43.709 162.005 41.879 160.71 40.303 C 159.414 38.727 157.902 37.421 156.177 36.389 C 154.449 35.356 152.609 34.652 150.657 34.276 C 152.271 33.526 153.671 32.606 154.853 31.518 C 156.035 30.428 157.021 29.208 157.81 27.856 C 158.597 26.505 159.189 25.041 159.584 23.463 C 159.978 21.886 160.175 20.235 160.175 18.508 C 160.175 15.73 159.752 13.206 158.908 10.933 C 158.062 8.663 156.787 6.73 155.078 5.132 C 153.369 3.537 151.201 2.308 148.574 1.444 C 145.945 0.581 142.509 0.149 138.267 0.149 C 111.84 0.307 109.103 6.325 116.487 6.325 L 137.705 6.288 C 140.783 6.288 143.242 6.588 145.082 7.189 C 146.922 7.79 148.414 8.644 149.559 9.751 C 150.704 10.859 151.539 12.191 152.065 13.749 C 152.591 15.307 152.854 17.044 152.854 18.958 C 152.854 20.724 152.591 22.421 152.065 24.054 C 151.539 25.689 150.732 27.124 149.644 28.363 C 148.554 29.602 147.166 30.587 145.476 31.32 C 143.787 32.053 141.571 32.418 138.831 32.418 L 132.896 32.418 L 132.896 38.443 L 139.451 38.443 C 142.679 38.443 145.383 38.764 147.56 39.401 C 149.737 40.041 151.567 40.978 153.05 42.217 C 154.534 43.456 155.66 44.996 156.429 46.836 C 157.199 48.676 157.584 50.796 157.584 53.198 C 157.584 55.451 157.18 57.432 156.374 59.141 C 155.566 60.849 153.588 63.635 152.216 64.781 C 150.845 65.926 149.269 66.789 147.486 67.371 C 146.708 67.625 145.67 67.633 144.949 68.27 C 142.402 70.221 144.136 73.426 145.33 73.657 C 146.523 73.889 146.105 73.73 147.514 73.763 C 149.504 73.35 151.353 72.74 153.062 71.933 C 154.769 71.125 156.3 70.141 157.652 68.977 C 159.004 67.813 160.148 66.48 161.087 64.979 C 162.025 63.477 163.638 60.445 164.145 58.606 C 164.652 56.766 164.905 54.775 164.905 52.636 C 164.905 50.157 164.53 47.877 163.779 45.793"/>
</svg>
