<?xml version="1.0" encoding="UTF-8"?>
<svg xmlns="http://www.w3.org/2000/svg" width="64" height="64" viewBox="106 0 60 74">
  <path fill="#000000" d="M 109.709 51.885 C 110.313 50.762 111.588 50.537 112.603 51.253 C 121.314 57.21 137.215 57.209 145.927 51.254 C 146.94 50.539 148.218 50.762 148.823 51.885 C 149.428 53.009 149.003 54.715 147.827 55.545 C 137.975 62.324 120.556 62.324 110.704 55.545 C 109.525 54.714 109.104 53.009 109.709 51.885"/>
  <path fill="#000000" d="M 134.549 19 C 134.549 21.918 132.184 24.283 129.266 24.283 C 126.348 24.283 123.983 21.918 123.983 19 C 123.983 16.082 126.348 13.717 129.266 13.717 C 132.184 13.717 134.549 16.082 134.549 19"/>
  <path fill="#000000" d="M 163.779 45.793 C 163.027 43.709 162.005 41.879 160.71 40.303 C 159.414 38.727 157.902 37.421 156.177 36.389 C 154.449 35.356 152.609 34.652 150.657 34.276 C 152.271 33.526 153.671 32.606 154.853 31.518 C 156.035 30.428 157.021 29.208 157.81 27.856 C 158.597 26.505 159.189 25.041 159.584 23.463 C 159.978 21.886 160.175 20.235 160.175 18.508 C 160.175 15.73 159.752 13.206 158.908 10.933 C 158.062 8.663 156.787 6.73 155.078 5.132 C 153.369 3.537 151.201 2.308 148.574 1.444 C 145.945 0.581 142.509 0.149 138.267 0.149 C 111.84 0.307 109.103 6.325 116.487 6.325 L 137.705 6.288 C 140.783 6.288 143.242 6.588 145.082 7.189 C 146.922 7.79 148.414 8.644 149.559 9.751 C 150.704 10.859 151.539 12.191 152.065 13.749 C 152.591 15.307 152.854 17.044 152.854 18.958 C 152.854 20.724 152.591 22.421 152.065 24.054 C 151.539 25.689 150.732 27.124 149.644 28.363 C 148.554 29.602 147.166 30.587 145.476 31.32 C 143.787 32.053 141.571 32.418 138.831 32.418 L 132.896 32.418 L 132.896 38.443 L 139.451 38.443 C 142.679 38.443 145.383 38.764 147.56 39.401 C 149.737 40.041 151.567 40.978 153.05 42.217 C 154.534 43.456 155.66 44.996 156.429 46.836 C 157.199 48.676 157.584 50.796 157.584 53.198 C 157.584 55.451 157.18 57.432 156.374 59.141 C 155.566 60.849 153.588 63.635 152.216 64.781 C 150.845 65.926 149.269 66.789 147.486 67.371 C 146.708 67.625 145.67 67.633 144.949 68.27 C 142.402 70.221 144.136 73.426 145.33 73.657 C 146.523 73.889 146.105 73.73 147.514 73.763 C 149.504 73.35 151.353 72.74 153.062 71.933 C 154.769 71.125 156.3 70.141 157.652 68.977 C 159.004 67.813 160.148 66.48 161.087 64.979 C 162.025 63.477 163.638 60.445 164.145 58.606 C 164.652 56.766 164.905 54.775 164.905 52.636 C 164.905 50.157 164.53 47.877 163.779 45.793"/>
</svg>
